<svg xmlns="http://www.w3.org/2000/svg" width="897" height="85" viewbox="0 0 897 85"><g transform="translate(4.5, 0.5)"><g stroke="black" stroke-width="1" stroke-linecap="round" transform="translate(0, 20.0)"><line x2="888"/><line y2="40.0"/><line x1="0" x2="888" y1="40.0" y2="40.0"/><line x1="888.0" x2="888.0" y2="40.0"/><line x1="832.5" x2="832.5" y2="5.0"/><line x1="832.5" x2="832.5" y2="5.0"/><line x1="777.0" x2="777.0" y2="5.0"/><line x1="777.0" x2="777.0" y2="5.0"/><line x1="721.5" x2="721.5" y2="5.0"/><line x1="721.5" x2="721.5" y2="5.0"/><line x1="666.0" x2="666.0" y2="5.0"/><line x1="666.0" x2="666.0" y2="5.0"/><line x1="610.5" x2="610.5" y2="5.0"/><line x1="610.5" x2="610.5" y2="5.0"/><line x1="555.0" x2="555.0" y2="5.0"/><line x1="555.0" x2="555.0" y2="5.0"/><line x1="499.5" x2="499.5" y2="5.0"/><line x1="499.5" x2="499.5" y2="5.0"/><line x1="444.0" x2="444.0" y2="5.0"/><line x1="444.0" x2="444.0" y2="5.0"/><line x1="388.5" x2="388.5" y2="5.0"/><line x1="388.5" x2="388.5" y2="5.0"/><line x1="333.0" x2="333.0" y2="5.0"/><line x1="333.0" x2="333.0" y2="5.0"/><line x1="277.5" x2="277.5" y2="5.0"/><line x1="277.5" x2="277.5" y2="5.0"/><line x1="222.0" x2="222.0" y2="5.0"/><line x1="222.0" x2="222.0" y2="5.0"/><line x1="166.5" x2="166.5" y2="5.0"/><line x1="166.5" x2="166.5" y2="5.0"/><line x1="111.0" x2="111.0" y2="5.0"/><line x1="111.0" x2="111.0" y2="5.0"/><line x1="55.5" x2="55.5" y2="5.0"/><line x1="55.5" x2="55.5" y2="5.0"/></g><g text-anchor="middle"><g ><g transform="translate(0, 20.0)"/><g transform="translate(27.75, 16.0)"><text x="832.5" font-size="14" font-family="sans-serif" font-weight="normal">0</text><text x="444.0" font-size="14" font-family="sans-serif" font-weight="normal">7</text></g><g transform="translate(27.75, 44.0)"><text x="638.25" font-size="14" font-family="sans-serif" font-weight="normal"><tspan >IPO</tspan></text></g><g transform="translate(27.75, 80)"><text x="638.25" font-size="14" font-family="sans-serif" font-weight="normal"><tspan >RO</tspan></text></g></g></g></g></svg>